<?xml version="1.0" encoding="UTF-8" standalone="no"?>
<!-- Created with Inkscape (http://www.inkscape.org/) -->

<svg
   xmlns:dc="http://purl.org/dc/elements/1.1/"
   xmlns:cc="http://creativecommons.org/ns#"
   xmlns:rdf="http://www.w3.org/1999/02/22-rdf-syntax-ns#"
   xmlns:svg="http://www.w3.org/2000/svg"
   xmlns="http://www.w3.org/2000/svg"
   xmlns:sodipodi="http://sodipodi.sourceforge.net/DTD/sodipodi-0.dtd"
   xmlns:inkscape="http://www.inkscape.org/namespaces/inkscape"
   width="744.09448819"
   height="1052.3622047"
   id="svg2"
   version="1.1"
   inkscape:version="0.48.4 r9939"
   sodipodi:docname="New document 1">
  <defs
     id="defs4" />
  <sodipodi:namedview
     id="base"
     pagecolor="#ffffff"
     bordercolor="#666666"
     borderopacity="1.0"
     inkscape:pageopacity="0.0"
     inkscape:pageshadow="2"
     inkscape:zoom="1.4"
     inkscape:cx="379.12931"
     inkscape:cy="444.32855"
     inkscape:document-units="px"
     inkscape:current-layer="layer1"
     showgrid="false"
     inkscape:window-width="1920"
     inkscape:window-height="1018"
     inkscape:window-x="-8"
     inkscape:window-y="-8"
     inkscape:window-maximized="1" />
  <metadata
     id="metadata7">
    <rdf:RDF>
      <cc:Work
         rdf:about="">
        <dc:format>image/svg+xml</dc:format>
        <dc:type
           rdf:resource="http://purl.org/dc/dcmitype/StillImage" />
        <dc:title></dc:title>
      </cc:Work>
    </rdf:RDF>
  </metadata>
  <g
     inkscape:label="Layer 1"
     inkscape:groupmode="layer"
     id="layer1">
    <path
       style="fill:none;stroke:#000000;stroke-width:1px;stroke-linecap:butt;stroke-linejoin:miter;stroke-opacity:1"
       d="m 207.14286,730.39789 c 1.60714,22.12857 1.96429,20.11905 3.57143,31.07143 l 45.89285,-6.07142 11.07143,14.82142 4.10714,0.35715 26.96429,33.57143 12.32143,-14.64286 11.25,10.35714 16.60714,23.21429 11.42857,-10.53572 -18.39285,-19.64285 -4.10715,-7.67858 -15.53571,-14.82142 -10,-14.46429 -27.85714,-20 -23.57143,-21.07143 c 2.41398,1.97005 -6.68965,-3.25841 -11.07143,-5.53571 -0.41667,-2.85714 -0.23152,-2.61247 -1.42857,-7.85714 z"
       id="path2999"
       inkscape:connector-curvature="0"
       sodipodi:nodetypes="ccccccccccccccccccc" />
    <path
       style="fill:none;stroke:#000000;stroke-width:1px;stroke-linecap:butt;stroke-linejoin:miter;stroke-opacity:1"
       d="m 353.03572,810.21932 21.60714,-21.60714 -10,-17.85714 14.10714,-7.67857 -20.35714,-29.64286 -14.64286,-16.07143 9.10714,-14.82143 18.75,-16.25 -30,-0.89285 -61.78571,-11.96429 -16.78572,20.89286 -21.60714,5.53571 -1.42857,0.17857 1.25,6.60715 11.42857,6.96428 23.57143,20.35714 26.96429,19.10715 11.78571,16.96428 14.82143,13.39286 3.92857,8.21429 18.39286,20.17857 1.60714,-2.14286 0,0.17857 z"
       id="path3001"
       inkscape:connector-curvature="0" />
    <path
       style="fill:none;stroke:#000000;stroke-width:1px;stroke-linecap:butt;stroke-linejoin:miter;stroke-opacity:1"
       d="m 279.46429,671.11218 -1.25,-6.25 3.21428,-8.92857 10.17857,0.71429 -4.46428,-11.60715 54.64286,-20.53571 20,33.03571 23.39285,-11.60714 3.57143,10.53571 4.46429,4.82143 3.75,12.85715 -18.03572,0.71428 -5.17857,9.10714 -3.03571,-2.85714 0.17857,-8.21428 -1.60714,-1.96429 0.35714,-5 -11.96429,-3.75 -22.14286,9.46429 -48.92857,-5.89286 -3.92857,6.07143 z"
       id="path3003"
       inkscape:connector-curvature="0" />
    <path
       style="fill:none;stroke:#000000;stroke-width:1px;stroke-linecap:butt;stroke-linejoin:miter;stroke-opacity:1"
       d="m 232.14286,605.57647 c 0.35714,-0.71429 -0.71429,-10.53572 -0.71429,-10.53572 L 215,557.8979 199.46429,537.36218 208.75,530.75504 245,523.61218 l 5.53571,-1.25 4.28572,7.67857 1.25,23.21429 1.42857,6.42857 -1.78571,12.14286 c 0,0 16.60714,35 16.60714,35.71428 0,0.71429 8.75,27.67857 8.75,27.67857 l 4.64286,7.85715 -0.89286,1.78571 3.39286,7.5 0.53571,1.60714 -6.78571,-1.07142 L 270,647.71932 252.85714,618.43361 z"
       id="path3005"
       inkscape:connector-curvature="0" />
    <path
       style="fill:none;stroke:#000000;stroke-width:1px;stroke-linecap:butt;stroke-linejoin:miter;stroke-opacity:1"
       d="m 295.17857,640.04075 45.53572,-18.03571 -14.82143,-33.39286 32.85714,-15 -31.96429,-67.67857 -0.17857,-8.75 -56.42857,11.07143 -0.35714,6.42857 -26.60714,4.82143 0.53571,1.96428 7.5,-1.60714 5,8.92857 1.60714,24.46429 1.42857,5.89286 0.35715,1.42857 -1.78572,8.92857 15.89286,35.35714 9.64286,29.64286 5,7.5 z"
       id="path3007"
       inkscape:connector-curvature="0" />
    <path
       style="fill:none;stroke:#000000;stroke-width:1px;stroke-linecap:butt;stroke-linejoin:miter;stroke-opacity:1"
       d="m 382.67857,617.00504 -52.32143,-109.46429 -1.78571,-10.89285 16.07143,-1.78572 16.25,-12.67857 4.64286,5.71429 6.07142,-0.17858 20,-12.32142 7.14286,7.5 7.67857,-3.75 2.5,3.03571 -1.78571,7.5 -7.32143,5.53571 21.07143,6.78572 c 0,0 15.89286,-3.03572 16.60714,-3.21429 0.71429,-0.17857 6.25,-3.75 6.25,-3.75 0,0 6.78572,0 7.67857,0.17857 0.89286,0.17858 3.39286,3.21429 3.39286,3.21429 l -0.35714,4.28571 4.46428,-2.14285 14.64286,25.35714 -1.60714,10.35714 7.5,16.42857 7.5,2.85715 -16.78572,17.85714 1.42857,11.60714 15.71429,14.28572 9.64286,12.14285 -52.85715,-12.67857 -5.35714,7.67857 -23.39286,-10.17857 -30.89285,25.35715 z"
       id="path3009"
       inkscape:connector-curvature="0" />
    <path
       style="fill:none;stroke:#000000;stroke-width:1px;stroke-linecap:butt;stroke-linejoin:miter;stroke-opacity:1"
       d="m 581.07143,531.29075 -23.39286,-5.53571 -17.14285,-28.57143 1.25,-12.14286 23.57142,-18.03571 3.03572,-10.35714 4.10714,1.07142 3.21429,-23.21428 5.71428,-6.25 8.21429,3.39286 6.42857,23.75 3.39286,4.10714 -25.35715,15 -1.07142,5.71428 19.64285,33.03572 11.25,7.67857 z"
       id="path3011"
       inkscape:connector-curvature="0" />
    <path
       style="fill:none;stroke:#000000;stroke-width:1px;stroke-linecap:butt;stroke-linejoin:miter;stroke-opacity:1"
       d="m 488.92857,554.1479 c 0.71429,-0.35715 17.67857,-10.71429 17.67857,-10.71429 l 47.32143,-16.07143 1.42857,-0.71428 -17.32142,-29.82143 -22.85715,-0.89286 2.67857,-20.17857 -44.10714,-1.78572 -0.71428,23.21429 -11.60715,3.21429 14.10715,25 -1.96429,10.71428 L 480,550.93361 z"
       id="path3013"
       inkscape:connector-curvature="0" />
    <path
       style="fill:none;stroke:#000000;stroke-width:1px;stroke-linecap:butt;stroke-linejoin:miter;stroke-opacity:1"
       d="m 512.14286,619.32647 -8.75,-7.14286 -3.39286,-0.17857 -10.71428,-13.75 -16.07143,-13.92857 -1.25,-10.35715 17.32143,-17.5 17.85714,-11.78571 48.39286,-16.42857 24.10714,5.89286 25.53571,-11.78572 6.78572,5.17857 12.67857,5.35715 32.67857,25.89285 13.03571,15.89286 L 633.21429,574.1479 590,584.68361 551.78572,608.61218 z"
       id="path3015"
       inkscape:connector-curvature="0" />
    <path
       style="fill:#999999"
       d="m 153.70627,802.02704 c -0.26813,-2.41871 -0.86911,-4.05099 -2.5706,-6.98174 -1.91989,-3.30695 -2.33446,-4.56062 -3.0608,-9.25612 -0.87827,-5.67769 -0.84641,-5.63163 -3.21435,-4.64629 -0.51382,0.21382 -1.97894,-0.90696 -4.48938,-3.43427 l -3.72662,-3.75167 2.59534,-1.31515 c 1.42744,-0.72334 2.59534,-1.49445 2.59534,-1.71358 0,-0.62169 -3.57449,-9.38364 -4.01685,-9.84628 -0.21705,-0.22699 -2.29964,0.0384 -4.62799,0.58989 -2.32834,0.55143 -4.26447,0.96444 -4.3025,0.9178 -0.038,-0.0467 -1.37634,-2.69858 -2.97403,-5.89319 -2.76517,-5.52903 -2.87895,-5.90554 -2.36586,-7.82868 0.53836,-2.01784 0.53283,-2.02984 -4.54118,-9.84899 l -5.0802,-7.82868 -9.31909,-5.72968 c -6.947882,-4.27179 -9.906126,-5.81397 -11.626212,-6.06092 -2.046453,-0.29381 -2.529597,-0.63163 -4.276156,-2.98995 -1.321927,-1.78495 -1.754021,-2.72211 -1.314791,-2.85162 0.359831,-0.1061 13.836729,-1.12511 29.948659,-2.26448 23.10712,-1.63403 102.24102,-8.85366 114.60326,-10.4556 l 2.47633,-0.32089 -14.47594,13.18139 c -7.96177,7.24976 -14.9855,13.30127 -15.60831,13.44779 -1.64866,0.38786 -33.54327,5.81173 -34.17539,5.81173 -0.29383,0 -1.35627,-1.23808 -2.36099,-2.75129 l -1.82675,-2.75129 6.87236,-8.40402 c 3.77979,-4.62221 6.87235,-8.55617 6.87235,-8.74214 0,-0.18596 -5.17071,-0.0223 -11.49048,0.36378 -9.3708,0.57241 -12.21658,0.58451 -15.42652,0.0656 -2.76472,-0.44695 -6.21851,-0.52624 -11.60597,-0.26645 l -7.66993,0.36986 -5.46112,2.73886 c -3.00362,1.50637 -5.35592,2.90909 -5.22733,3.11714 0.12859,0.20806 2.39104,1.73564 5.02767,3.39463 l 4.79389,3.01635 0.80436,4.27018 c 0.89303,4.74093 0.69997,4.41296 8.7844,14.92272 5.26432,6.84361 5.49957,7.07107 7.31335,7.07107 1.03074,0 1.87393,0.20764 1.87375,0.46144 -4.2e-4,0.57132 6.45818,48.94314 6.82412,51.10943 0.23519,1.39225 0.0383,1.71828 -1.75371,2.90418 -1.11025,0.73473 -2.11483,1.33587 -2.23241,1.33587 -0.11757,0 -0.37125,-1.42052 -0.56372,-3.15672 l 0,0 z"
       id="path3017"
       inkscape:connector-curvature="0" />
    <path
       style="fill:#999999"
       d="m 330.97607,810.56954 c -6.99899,-9.75996 -8.83179,-11.95527 -13.79861,-16.52782 -3.15018,-2.90012 -5.90788,-5.27293 -6.12823,-5.27293 -0.22034,0 -2.93043,3.00005 -6.02242,6.66678 -3.09199,3.66672 -5.81298,6.78492 -6.04664,6.92933 -0.23366,0.14442 -6.31037,-7.08666 -13.5038,-16.06905 -13.06282,-16.31147 -13.08163,-16.33193 -15.25048,-16.59282 -1.19433,-0.14367 -2.24357,-0.34469 -2.33164,-0.44672 -0.0881,-0.10202 -2.49834,-3.36748 -5.35614,-7.25657 -2.8578,-3.88908 -5.26075,-7.15187 -5.33989,-7.25063 -0.0791,-0.0988 -9.98781,1.11441 -22.0193,2.69595 -12.03148,1.58155 -22.32018,2.91242 -22.86377,2.9575 -0.87852,0.0729 -1.08625,-0.5354 -1.86943,-5.47388 -0.48459,-3.05572 -1.26644,-9.74274 -1.73745,-14.86006 l -0.85638,-9.30421 1.96819,-1.78672 c 1.0825,-0.98269 7.65029,-7.05173 14.59509,-13.48674 6.9448,-6.43502 12.85243,-11.78554 13.12806,-11.89004 0.27562,-0.10451 0.75663,1.23801 1.0689,2.98337 0.31227,1.74537 0.65496,3.25926 0.76155,3.36421 0.10658,0.10495 2.8029,1.56374 5.99183,3.24176 5.26987,2.77303 6.84754,3.98489 17.31894,13.30332 8.89765,7.91795 14.65017,12.49876 25.26415,20.11819 l 13.74324,9.86583 4.954,7.16889 c 4.22446,6.11317 6.10796,8.26768 12.79002,14.63037 6.71462,6.39367 8.11978,8.00359 9.81873,11.24955 1.56443,2.98896 3.87408,5.80301 10.94856,13.33961 l 8.96586,9.55153 -3.53553,3.31585 c -1.94454,1.82372 -4.22198,3.94027 -5.06096,4.70345 l -1.52543,1.3876 -8.07102,-11.2549 z"
       id="path3019"
       inkscape:connector-curvature="0" />
    <path
       style="fill:#999999;opacity:1"
       d="m 343.11968,800.77417 c -7.30871,-8.03084 -8.87472,-10.04377 -10.6066,-13.63364 -1.91932,-3.97836 -2.43764,-4.57671 -9.3555,-10.79992 -6.75874,-6.08009 -7.79107,-7.25613 -13.38452,-15.24773 l -6.06091,-8.65951 -13.38452,-9.47833 c -9.62422,-6.81545 -16.72735,-12.3637 -25.28308,-19.7486 -8.67688,-7.48948 -13.4138,-11.18323 -17.49484,-13.6421 -5.23473,-3.15399 -5.618,-3.49433 -5.93232,-5.26772 -0.18481,-1.04273 -0.44348,-2.26408 -0.57483,-2.71411 -0.19428,-0.66566 0.77616,-1.07018 5.20396,-2.16926 2.99353,-0.74306 8.10868,-2.0506 11.36702,-2.90565 l 5.92425,-1.55462 8.17915,-10.16572 c 4.49854,-5.59114 8.23333,-10.24034 8.29955,-10.33156 0.0662,-0.0912 13.83224,2.48648 30.59114,5.7282 l 30.47074,5.89404 13.86774,0.47451 c 7.62725,0.26098 13.94504,0.55181 14.03953,0.6463 0.0945,0.0945 -3.64926,3.4744 -8.31944,7.51092 l -8.49123,7.33912 -4.68177,7.68797 c -4.57344,7.51008 -4.66081,7.71189 -3.77582,8.72179 0.49827,0.56861 3.82279,4.23402 7.38782,8.14537 5.02576,5.51399 8.68491,10.31637 16.28871,21.37782 5.39376,7.84644 9.80584,14.43768 9.80462,14.64721 -0.001,0.20952 -3.07685,2.05069 -6.83474,4.09148 l -6.83253,3.71055 1.7419,3.10798 c 0.95804,1.7094 3.21666,5.72177 5.01914,8.91637 l 3.27724,5.80838 -10.68503,10.90847 c -5.87677,5.99965 -10.79868,10.93444 -10.93758,10.9662 -0.13889,0.0318 -4.11116,-4.18214 -8.82725,-9.36421 l 0,0 z"
       id="path3021"
       inkscape:connector-curvature="0" />
    <path
       style="fill:#999999"
       d="m 372.4808,681.52658 c -0.62559,-0.69128 -0.83589,-1.90292 -0.83589,-4.816 0,-2.74297 -0.24246,-4.26238 -0.82109,-5.14547 -0.58602,-0.89438 -0.75223,-1.96979 -0.58055,-3.75641 l 0.24053,-2.50327 -2.57617,-0.76806 c -1.4169,-0.42243 -4.29865,-1.3082 -6.4039,-1.96837 l -3.82773,-1.20032 -11.19441,4.74059 -11.19442,4.74059 -23.36365,-2.7805 c -12.85001,-1.52928 -23.89949,-2.86983 -24.55439,-2.97899 -0.98965,-0.16497 -1.50139,0.29931 -3.03045,2.74947 -2.60284,4.17076 -4.19212,3.95442 -4.87969,-0.66426 -0.29013,-1.94894 -0.0911,-3.14236 1.06831,-6.40544 l 1.42488,-4.01023 5.19787,0.29435 c 3.56736,0.20202 5.19788,0.12322 5.19788,-0.2512 0,-0.30006 -0.90955,-2.87948 -2.02123,-5.73203 -1.11167,-2.85256 -1.85035,-5.34985 -1.64149,-5.54954 0.20885,-0.19969 12.15134,-4.79418 26.53886,-10.20998 l 26.15913,-9.84692 1.14895,1.85005 c 0.63193,1.01752 5.10149,8.38447 9.93237,16.37099 4.83088,7.98652 8.95044,14.52094 9.15458,14.52094 0.20414,0 5.47595,-2.4731 11.71513,-5.49578 l 11.34397,-5.49579 1.83489,5.11598 c 1.41895,3.95625 2.30103,5.59093 3.89117,7.21116 1.76408,1.79747 2.29735,2.9065 3.75297,7.8049 0.93319,3.14035 1.60563,5.80081 1.49431,5.91213 -0.11132,0.11132 -3.56962,0.30618 -7.6851,0.43303 -4.11549,0.12684 -7.97375,0.33024 -8.57392,0.452 -0.72985,0.14806 -1.86338,1.56006 -3.42284,4.2637 -1.28239,2.22328 -2.40392,4.04233 -2.4923,4.04233 -0.0884,0 -0.53684,-0.41564 -0.99658,-0.92365 l 0,0 z"
       id="path3023"
       inkscape:connector-curvature="0" />
    <path
       style="fill:#999999"
       d="m 286.34375,637.64063 c -1.82346,-2.77481 -3.09238,-6.06169 -7.16178,-18.55104 -4.29532,-13.18274 -5.97092,-17.45424 -12.74231,-32.48321 l -7.79664,-17.3045 0.91138,-4.41378 c 0.88241,-4.27351 0.88161,-4.53418 -0.0255,-8.20186 -0.57857,-2.3394 -1.25229,-8.49052 -1.76167,-16.08426 l -0.82482,-12.2962 -2.5572,-4.49759 c -1.92096,-3.37857 -2.82579,-4.50952 -3.63672,-4.54551 -0.59374,-0.0264 3.57981,-0.92471 9.27454,-1.99635 5.69474,-1.07163 10.41089,-1.95921 10.48033,-1.97239 0.0695,-0.0132 0.12627,-1.39479 0.12627,-3.07027 0,-1.97203 0.22265,-3.13114 0.63135,-3.28686 1.03469,-0.39424 54.15602,-10.75467 54.32315,-10.59482 0.0845,0.0809 0.33175,2.16128 0.54935,4.62316 l 0.39564,4.47615 15.53986,32.8211 c 12.01725,25.38111 15.38473,32.91523 14.85547,33.23637 -0.37641,0.2284 -7.61656,3.5738 -16.08922,7.43423 -8.47265,3.86041 -15.45249,7.31408 -15.51074,7.6748 -0.0582,0.36072 3.14502,7.92896 7.11839,16.8183 6.87153,15.3732 7.17267,16.18232 6.16683,16.56956 -0.58161,0.22392 -10.26249,4.06474 -21.51306,8.53516 -17.34385,6.89159 -27.17452,10.53846 -28.28427,10.49258 -0.1389,-0.006 -1.24979,-1.52799 -2.46865,-3.38277 l 0,0 z"
       id="path3025"
       inkscape:connector-curvature="0" />
    <path
       style="fill:#999999"
       d="m 284.55573,652.56748 c -2.66939,-0.50981 -12.7263,-4.66295 -13.84348,-5.71684 -0.37126,-0.35023 -4.37477,-6.97298 -8.89669,-14.71721 l -8.22168,-14.08042 -10.2962,-6.44804 -10.29621,-6.44804 -0.37378,-5.09675 -0.37378,-5.09675 -8.15432,-18.50725 -8.15433,-18.50725 -7.3818,-9.80755 c -4.05999,-5.39416 -7.46236,-10.01107 -7.56082,-10.25981 -0.19747,-0.49882 0.19509,-0.82615 4.97725,-4.15038 l 3.283,-2.2821 20.42174,-4.0407 c 11.23195,-2.22239 20.47001,-3.98759 20.52901,-3.92267 0.059,0.0649 0.94747,1.65231 1.97438,3.52756 l 1.86712,3.40953 0.69008,11.74276 c 0.37954,6.45851 0.96465,13.1509 1.30022,14.87198 0.51218,2.62676 0.46947,4.0866 -0.26595,9.09138 l -0.8761,5.96213 3.61593,7.57615 c 5.00932,10.49557 13.46821,29.08343 13.79089,30.30458 0.14681,0.55558 2.00106,6.52521 4.12057,13.26583 2.86489,9.11119 4.41519,13.20551 6.04229,15.95764 1.53638,2.59867 2.11605,4.0818 1.94503,4.97645 -0.15442,0.8078 0.40854,2.68605 1.53739,5.1293 0.97957,2.12014 1.62535,3.82938 1.43508,3.79831 -0.19026,-0.0311 -1.46595,-0.27039 -2.83484,-0.53184 l 0,0 z"
       id="path3027"
       inkscape:connector-curvature="0" />
    <path
       style="fill:#999999"
       d="m 384.27494,619.07138 c -0.27951,-0.73517 -0.5082,-1.40672 -0.5082,-1.49233 0,-0.0856 -11.83575,-24.90162 -26.30167,-55.1467 -26.00917,-54.37951 -26.31146,-55.04759 -27.1822,-60.0751 l -0.88053,-5.08405 7.79885,-0.84028 c 4.28936,-0.46215 8.05501,-1.03718 8.36811,-1.27785 0.31309,-0.24066 3.84945,-3.00268 7.85858,-6.13782 l 7.28933,-5.70025 1.91324,2.21316 c 1.05229,1.21724 1.92003,2.38363 1.92832,2.59197 0.008,0.20835 1.66288,0.37369 3.67687,0.36744 l 3.66181,-0.0114 9.7921,-6.02642 9.79211,-6.02641 3.49762,3.74523 3.49763,3.74523 3.75759,-1.8593 3.75758,-1.8593 1.07495,1.07495 c 1.06265,1.06265 1.06513,1.11448 0.21712,4.53066 -0.85678,3.45151 -0.86273,3.45933 -4.89461,6.43032 -2.22023,1.63603 -3.85255,3.12786 -3.62738,3.31517 0.22517,0.18731 5.28416,1.89976 11.24219,3.80544 l 10.83279,3.46489 8.61265,-1.68375 c 7.41203,-1.44904 9.04237,-1.94349 11.69527,-3.54695 3.04078,-1.8379 3.13587,-1.85884 7.00428,-1.54243 4.93596,0.40374 6.05979,1.43013 5.69724,5.20328 -0.12707,1.32243 -0.0281,2.40442 0.22002,2.40442 0.24809,0 1.34494,-0.45603 2.43747,-1.01339 l 1.98642,-1.0134 0.73216,1.13966 c 0.40268,0.62682 3.61346,6.13992 7.13506,12.25135 l 6.40291,11.11167 -0.79795,5.17416 -0.79794,5.17415 3.65826,7.95784 c 2.01205,4.3768 3.81889,8.20892 4.0152,8.51583 0.19632,0.30691 1.72762,1.05779 3.4029,1.66863 1.67529,0.61084 3.04598,1.23803 3.04598,1.39374 0,0.15572 -3.52291,3.97779 -7.82868,8.49349 -8.86611,9.29837 -8.29294,7.97107 -7.15392,16.56642 l 0.58792,4.43663 7.82869,7.08566 c 4.69033,4.24518 9.48021,9.14828 11.94847,12.23089 2.26588,2.82987 4.08415,5.18141 4.04061,5.22564 -0.0435,0.0442 -11.32975,-2.62481 -25.08046,-5.93119 -13.7507,-3.30639 -25.24526,-6.01316 -25.54347,-6.01506 -0.2982,-0.002 -1.62927,1.58753 -2.95791,3.53208 -1.32865,1.94454 -2.63096,3.53553 -2.89402,3.53553 -0.26305,0 -5.47757,-2.17442 -11.58781,-4.83205 -6.11025,-2.65763 -11.31009,-4.76001 -11.55521,-4.67195 -0.39052,0.14027 -19.0388,15.32206 -27.31366,22.23636 l -2.99448,2.50213 -0.5082,-1.33667 0,0 z"
       id="path3029"
       inkscape:connector-curvature="0" />
    <path
       style="fill:#999999"
       d="m 484.32335,551.68599 -3.74163,-1.40568 -2.94882,-6.77229 c -1.62185,-3.72476 -2.95326,-7.22686 -2.95869,-7.78245 -0.005,-0.55558 0.36314,-3.16935 0.81903,-5.80837 l 0.82889,-4.79823 -6.85349,-12.12183 -6.85349,-12.12183 5.40131,-1.46588 c 2.97073,-0.80623 5.47383,-1.52272 5.56246,-1.5922 0.0886,-0.0695 0.31592,-5.12981 0.50508,-11.24521 0.18916,-6.11539 0.50177,-11.27673 0.69469,-11.46965 0.27644,-0.27644 41.89496,1.15873 42.13872,1.4531 0.0347,0.0419 -0.51741,4.44857 -1.2269,9.79259 -0.70949,5.34403 -1.16629,9.84011 -1.0151,9.9913 0.15119,0.15119 5.34703,0.49829 11.54631,0.77135 6.19928,0.27306 11.32048,0.54994 11.38043,0.61531 1.15966,1.26423 16.33006,28.39311 16.03568,28.67623 -0.2299,0.22112 -10.98525,3.98519 -23.90077,8.36461 l -23.48277,7.96258 -8.66436,5.21064 c -4.7654,2.86584 -8.858,5.19734 -9.09465,5.18111 -0.23666,-0.0162 -2.11403,-0.66207 -4.17193,-1.4352 l 0,0 z"
       id="path3031"
       inkscape:connector-curvature="0" />
    <path
       style="fill:#999999"
       d="m 507.87916,614.80819 c -3.03945,-2.50495 -4.72537,-3.54402 -5.94143,-3.6618 -1.51315,-0.14656 -2.26749,-0.89275 -6.93516,-6.86015 -4.23039,-5.40837 -6.76028,-8.01447 -13.15853,-13.55495 l -7.92119,-6.85924 -0.54624,-4.6278 -0.54625,-4.6278 4.92784,-5.3033 c 9.13289,-9.82876 11.97261,-12.28025 21.14147,-18.25111 l 8.81438,-5.74002 23.94602,-8.11608 23.94602,-8.11609 12.06455,2.93335 12.06456,2.93336 12.68168,-5.84163 12.68168,-5.84162 3.09215,2.40126 c 1.91286,1.48547 5.60023,3.48284 9.66851,5.23722 6.55745,2.8278 6.62285,2.87282 22.73998,15.65312 13.00821,10.31504 16.81529,13.61397 19.50173,16.89882 1.83596,2.24491 4.55643,5.53897 6.0455,7.32014 l 2.7074,3.2385 -17.7162,-0.35511 -17.7162,-0.35511 -21.91806,5.33871 -21.91805,5.33872 -19.1929,11.99474 -19.1929,11.99475 -19.1929,5.17107 c -10.55609,2.84408 -19.34836,5.16754 -19.53837,5.16324 -0.19002,-0.005 -2.25511,-1.58164 -4.58909,-3.50519 z"
       id="path3033"
       inkscape:connector-curvature="0" />
    <path
       style="fill:#999999"
       d="m 569.12973,527.72122 -10.85914,-2.61241 -8.48836,-14.08491 -8.48837,-14.0849 0.61053,-5.71418 0.61053,-5.71418 11.74964,-8.98518 11.74965,-8.98518 1.43149,-4.94667 c 1.55539,-5.37483 1.28193,-5.1396 4.77499,-4.10756 0.98602,0.29133 0.91278,0.63688 2.75079,-12.9777 l 1.40609,-10.41518 2.60512,-2.93607 2.60513,-2.93607 3.70624,1.4993 3.70624,1.49929 3.14762,11.69504 c 2.39117,8.88441 3.48468,12.13695 4.55014,13.53383 1.15892,1.51943 1.2771,1.92 0.68042,2.30641 -0.39715,0.2572 -5.96634,3.56994 -12.37596,7.36166 l -11.65388,6.89404 -0.55175,3.22114 -0.55176,3.22115 9.93278,16.7307 9.93279,16.73069 4.93889,3.28985 c 2.71639,1.80942 4.76195,3.46626 4.54569,3.68188 -0.61455,0.6127 -20.40825,9.54166 -21.04172,9.49194 -0.31058,-0.0244 -5.4513,-1.21991 -11.42383,-2.65673 z"
       id="path3035"
       inkscape:connector-curvature="0" />
  </g>
  <g
     inkscape:groupmode="layer"
     id="layer2"
     inkscape:label="Layer">
    <path
       style="fill:none;stroke:#000000;stroke-width:1px;stroke-linecap:butt;stroke-linejoin:miter;stroke-opacity:1"
       d="m 153.39286,806.82647 -0.71429,-7.67857 -4.46428,-7.5 -1.60715,-10.35715 -2.5,1.07143 -9.10714,-8.57143 6.07143,-2.85714 -3.75,-9.46429 -8.75,2.14286 -6.42857,-12.5 1.07143,-4.10714 -9.82143,-15.17857 -18.571431,-11.42857 -4.642857,-0.53572 -5,-6.96428 L 145,708.61218 l 91.60714,-8.92857 -30.89285,28.03571 -36.42858,6.25 -4.28571,-6.60714 13.57143,-16.60714 -22.85714,1.42857 -6.60715,-1.42857 -15.35714,0.89286 -9.82143,5 9.46429,6.07142 1.60714,8.75 13.39286,17.5 3.57143,-0.53571 7.32142,54.46429 z"
       id="path2997"
       inkscape:connector-curvature="0" />
  </g>
</svg>
